<?xml version="1.0" encoding="UTF-8" standalone="no"?>
<!-- Created with Inkscape (http://www.inkscape.org/) -->

<svg
   xmlns:dc="http://purl.org/dc/elements/1.1/"
   xmlns:cc="http://creativecommons.org/ns#"
   xmlns:rdf="http://www.w3.org/1999/02/22-rdf-syntax-ns#"
   xmlns:svg="http://www.w3.org/2000/svg"
   xmlns="http://www.w3.org/2000/svg"
   xmlns:xlink="http://www.w3.org/1999/xlink"
   xmlns:sodipodi="http://sodipodi.sourceforge.net/DTD/sodipodi-0.dtd"
   xmlns:inkscape="http://www.inkscape.org/namespaces/inkscape"
   width="32"
   height="32"
   id="svg2"
   version="1.1"
   inkscape:version="0.91 r13725"
   sodipodi:docname="chain_closed.svg">
  <defs
     id="defs4">
    <linearGradient
       id="linearGradient4141">
      <stop
         id="stop4143"
         offset="0"
         style="stop-color:#426396;stop-opacity:1" />
      <stop
         id="stop4145"
         offset="1"
         style="stop-color:#5e96c3;stop-opacity:1" />
    </linearGradient>
    <linearGradient
       id="linearGradient4294">
      <stop
         style="stop-color:#4581e3;stop-opacity:1"
         offset="0"
         id="stop4296" />
      <stop
         style="stop-color:#94bcdc;stop-opacity:1"
         offset="1"
         id="stop4298" />
    </linearGradient>
    <linearGradient
       inkscape:collect="always"
       xlink:href="#linearGradient4141"
       id="linearGradient4300"
       x1="26.98015"
       y1="1035.3843"
       x2="15.10096"
       y2="1024.985"
       gradientUnits="userSpaceOnUse"
       gradientTransform="matrix(1.2343218,0,0,1.186121,-3.6660306,-193.30477)" />
    <linearGradient
       inkscape:collect="always"
       xlink:href="#linearGradient4141"
       id="linearGradient4302"
       x1="17.446945"
       y1="1045.2266"
       x2="5.7556653"
       y2="1034.0756"
       gradientUnits="userSpaceOnUse"
       gradientTransform="matrix(1.2343218,0,0,1.186121,-3.6660306,-193.30477)" />
  </defs>
  <sodipodi:namedview
     id="base"
     pagecolor="#ffffff"
     bordercolor="#666666"
     borderopacity="1.0"
     inkscape:pageopacity="0.0"
     inkscape:pageshadow="2"
     inkscape:zoom="15.962652"
     inkscape:cx="-6.3647048"
     inkscape:cy="16.082926"
     inkscape:document-units="px"
     inkscape:current-layer="layer1"
     showgrid="true"
     inkscape:snap-to-guides="false"
     inkscape:snap-grids="false"
     inkscape:window-width="1920"
     inkscape:window-height="1144"
     inkscape:window-x="0"
     inkscape:window-y="0"
     inkscape:window-maximized="1">
    <inkscape:grid
       type="xygrid"
       id="grid2985"
       empspacing="5"
       visible="true"
       enabled="true"
       snapvisiblegridlinesonly="true" />
  </sodipodi:namedview>
  <metadata
     id="metadata7">
    <rdf:RDF>
      <cc:Work
         rdf:about="">
        <dc:format>image/svg+xml</dc:format>
        <dc:type
           rdf:resource="http://purl.org/dc/dcmitype/StillImage" />
        <dc:title />
      </cc:Work>
    </rdf:RDF>
  </metadata>
  <g
     inkscape:label="Layer 1"
     inkscape:groupmode="layer"
     id="layer1"
     transform="translate(0,-1020.3622)">
    <path
       style="fill:url(#linearGradient4302);fill-opacity:1;stroke:none"
       d="m 13.909329,1035.0351 c -2.653276,2.3783 -6.5579404,5.912 -7.7430003,7.6013 -1.0444529,1.4886 2.0949947,4.5745 3.6677369,3.1499 1.3007544,-1.1782 3.8035824,-3.287 3.8035824,-3.287 0,0 1.659646,0.6019 2.52734,0.7168 0.803468,0.107 2.430894,-0.032 2.430894,-0.032 0,0 -3.898658,5.1603 -6.724185,6.2999 -6.4663518,2.6829 -11.90684655,-2.9157 -9.5089477,-8.6968 0.7909199,-1.728 6.9272438,-7.378 8.6259757,-8.8339 1.29665,-1.1114 4.498498,-1.3645 6.112895,-0.8219 0.623536,0.2098 3.10179,0.878 2.581,3.3556 -3.600903,2.7658 -1.809182,-0.4693 -5.773291,0.5479 z"
       id="path3772"
       inkscape:connector-curvature="0"
       sodipodi:nodetypes="csscscccsscc" />
    <path
       sodipodi:nodetypes="csscscccsscc"
       inkscape:connector-curvature="0"
       id="path3774"
       d="m 18.701169,1037.3691 c 2.653255,-2.3784 6.558003,-5.9119 7.743033,-7.6011 1.044409,-1.4888 -2.095,-4.5747 -3.667741,-3.1502 -1.300716,1.1783 -3.803593,3.2871 -3.803593,3.2871 0,0 -1.659691,-0.6019 -2.527378,-0.7168 -0.803391,-0.1059 -2.430888,0.032 -2.430888,0.032 0,0 3.898678,-5.1605 6.724212,-6.3003 6.466387,-2.6829 11.906905,2.9159 9.508979,8.697 -0.790924,1.7277 -6.92728,7.378 -8.626005,8.8338 -1.296597,1.1113 -4.498456,1.3647 -6.112831,0.8217 -0.623631,-0.2095 -3.101895,-0.878 -2.581046,-3.3553 3.600847,-2.7658 1.809204,0.4692 5.773258,-0.548 z"
       style="fill:url(#linearGradient4300);fill-opacity:1;stroke:none" />
  </g>
</svg>
