<?xml version="1.0" encoding="UTF-8" standalone="no"?>
<!-- Created with Inkscape (http://www.inkscape.org/) -->

<svg
   xmlns:dc="http://purl.org/dc/elements/1.1/"
   xmlns:cc="http://creativecommons.org/ns#"
   xmlns:rdf="http://www.w3.org/1999/02/22-rdf-syntax-ns#"
   xmlns:svg="http://www.w3.org/2000/svg"
   xmlns="http://www.w3.org/2000/svg"
   xmlns:sodipodi="http://sodipodi.sourceforge.net/DTD/sodipodi-0.dtd"
   xmlns:inkscape="http://www.inkscape.org/namespaces/inkscape"
   width="32"
   height="32"
   id="svg2"
   version="1.1"
   inkscape:version="0.48.4 r9939"
   sodipodi:docname="chain.svg">
  <defs
     id="defs4" />
  <sodipodi:namedview
     id="base"
     pagecolor="#ffffff"
     bordercolor="#666666"
     borderopacity="1.0"
     inkscape:pageopacity="0.0"
     inkscape:pageshadow="2"
     inkscape:zoom="15.962652"
     inkscape:cx="16"
     inkscape:cy="16.208218"
     inkscape:document-units="px"
     inkscape:current-layer="layer1"
     showgrid="true"
     inkscape:snap-to-guides="false"
     inkscape:snap-grids="false"
     inkscape:window-width="1920"
     inkscape:window-height="1140"
     inkscape:window-x="-4"
     inkscape:window-y="-4"
     inkscape:window-maximized="1">
    <inkscape:grid
       type="xygrid"
       id="grid2985"
       empspacing="5"
       visible="true"
       enabled="true"
       snapvisiblegridlinesonly="true" />
  </sodipodi:namedview>
  <metadata
     id="metadata7">
    <rdf:RDF>
      <cc:Work
         rdf:about="">
        <dc:format>image/svg+xml</dc:format>
        <dc:type
           rdf:resource="http://purl.org/dc/dcmitype/StillImage" />
        <dc:title />
      </cc:Work>
    </rdf:RDF>
  </metadata>
  <g
     inkscape:label="Layer 1"
     inkscape:groupmode="layer"
     id="layer1"
     transform="translate(0,-1020.3622)">
    <path
       style="fill:#006680;stroke:none"
       d="m 14.238879,1035.5941 c -2.149582,2.0051 -5.3129902,4.9843 -6.2730801,6.4085 -0.8461756,1.2551 1.6972835,3.8567 2.9714591,2.6557 1.053821,-0.9933 3.081515,-2.7712 3.081515,-2.7712 0,0 1.344582,0.5074 2.047554,0.6043 0.650939,0.09 1.969417,-0.027 1.969417,-0.027 0,0 -3.158543,4.3507 -5.447676,5.3114 -5.2387886,2.2619 -9.646468,-2.4582 -7.7037827,-7.3321 0.6407728,-1.4569 5.6121857,-6.2203 6.9884327,-7.4478 1.050497,-0.9369 3.64451,-1.1504 4.952432,-0.6928 0.505166,0.1768 2.512951,0.7402 2.091028,2.829 -2.917314,2.3318 -1.46573,-0.3957 -4.677299,0.4619 z"
       id="path3772"
       inkscape:connector-curvature="0"
       sodipodi:nodetypes="csscscccsscc" />
    <path
       sodipodi:nodetypes="csscscccsscc"
       inkscape:connector-curvature="0"
       id="path3774"
       d="m 18.121043,1037.5619 c 2.149565,-2.0052 5.313042,-4.9843 6.273108,-6.4084 0.84614,-1.2552 -1.697289,-3.8569 -2.971463,-2.6559 -1.05379,0.9934 -3.081524,2.7713 -3.081524,2.7713 0,0 -1.344619,-0.5075 -2.047585,-0.6043 -0.650877,-0.089 -1.969411,0.027 -1.969411,0.027 0,0 3.158558,-4.3507 5.447697,-5.3116 5.238818,-2.2619 9.646516,2.4583 7.703808,7.3323 -0.640775,1.4566 -5.612215,6.2203 -6.988457,7.4476 -1.050452,0.9369 -3.644475,1.1505 -4.95238,0.6927 -0.505242,-0.1766 -2.513036,-0.7402 -2.091064,-2.8288 2.917267,-2.3318 1.465747,0.3956 4.677271,-0.4619 z"
       style="fill:#006680;stroke:none" />
  </g>
</svg>
