<?xml version="1.0" encoding="UTF-8"?>
<svg width="392.06259" height="392.06219" xmlns="http://www.w3.org/2000/svg">
 <title>golden cogwheel</title>
 <metadata id="metadata4083">image/svg+xml</metadata>
 <g>
  <title>Layer 1</title>
  <g id="layer1">
   <path d="m179.655975,1l-8.125,46.28101l0.032013,0.030972c-9.932007,1.62302 -19.541016,4.22403 -28.718994,7.688019l0,-0.03101l-30.156006,-36.032011l-28.344002,16.375002l16.094002,44.125031l0.062012,0.031006c-7.684021,6.307983 -14.72702,13.375969 -21.031013,21.062996l-0.030998,-0.094002l-44.125,-16.093994l-16.374998,28.343994l36.031,30.187988c-3.458,9.169983 -6.036011,18.765015 -7.656002,28.687012l-0.032009,-0.031006l-46.280979,8.125l0,32.75l46.280979,8.125l0.032009,-0.031006c1.619991,9.921997 4.198002,19.516968 7.656002,28.687988l-36.031,30.187012l16.374998,28.343994l44.125,-16.093994l0.030998,-0.093994c6.303993,7.687012 13.346992,14.755005 21.031013,21.062012l-0.062012,0.031006l-16.094002,44.125l28.344002,16.375l30.156006,-36.030029l0,-0.031982c9.177979,3.463989 18.786987,6.065002 28.718994,7.687988l-0.032013,0.031006l8.125,46.281006l32.719025,0l8.125,-46.281006l-0.031006,-0.031006c9.928986,-1.619019 19.540985,-4.197998 28.718964,-7.656006l30.187012,36.031006l28.343994,-16.375l-16.125,-44.125c7.666992,-6.291992 14.705994,-13.335022 21,-21l44.156006,16.093994l16.343994,-28.343994l-36,-30.187988c3.459045,-9.171997 6.067017,-18.764038 7.687012,-28.687012l46.281982,-8.093994l0,-32.75l-46.281982,-8.125c-1.620972,-9.913025 -4.231995,-19.494019 -7.687012,-28.656006l36,-30.187988l-16.343994,-28.343025l-44.156006,16.093025c-6.294006,-7.665039 -13.333008,-14.708015 -21,-21l16.125,-44.125031l-28.343994,-16.375002l-30.187012,36.031012c-9.177979,-3.457981 -18.789978,-6.036991 -28.718964,-7.65601l0.031006,-0.030972l-8.125,-46.28101l-32.719025,0l0,0zm16.375,79.687012c63.710022,0 115.375,51.633972 115.375,115.343994c0,63.709961 -51.664978,115.343994 -115.375,115.343994c-63.709991,0 -115.342987,-51.634033 -115.342987,-115.343994c0,-63.710022 51.632996,-115.343994 115.342987,-115.343994z" id="path4050" stroke-dashoffset="0" stroke-miterlimit="4" stroke-linejoin="round" stroke-linecap="round" stroke-width="2" fill="#000000"/>
  </g>
 </g>
</svg>