<?xml version="1.0" encoding="UTF-8" standalone="no"?>
<!-- Created with Inkscape (http://www.inkscape.org/) -->

<svg
   xmlns:dc="http://purl.org/dc/elements/1.1/"
   xmlns:cc="http://creativecommons.org/ns#"
   xmlns:rdf="http://www.w3.org/1999/02/22-rdf-syntax-ns#"
   xmlns:svg="http://www.w3.org/2000/svg"
   xmlns="http://www.w3.org/2000/svg"
   xmlns:xlink="http://www.w3.org/1999/xlink"
   xmlns:sodipodi="http://sodipodi.sourceforge.net/DTD/sodipodi-0.dtd"
   xmlns:inkscape="http://www.inkscape.org/namespaces/inkscape"
   width="32"
   height="32"
   id="svg2"
   version="1.1"
   inkscape:version="0.48.4 r9939"
   sodipodi:docname="dock_chain_open.svg">
  <defs
     id="defs4">
    <linearGradient
       id="linearGradient4304">
      <stop
         style="stop-color:#f7c56f;stop-opacity:1;"
         offset="0"
         id="stop4306" />
      <stop
         style="stop-color:#fff2df;stop-opacity:1;"
         offset="1"
         id="stop4308" />
    </linearGradient>
    <linearGradient
       inkscape:collect="always"
       xlink:href="#linearGradient4304"
       id="linearGradient4310"
       x1="26.414892"
       y1="1038.3674"
       x2="12.845695"
       y2="1024.272"
       gradientUnits="userSpaceOnUse" />
    <linearGradient
       inkscape:collect="always"
       xlink:href="#linearGradient4304"
       id="linearGradient4312"
       x1="16.945774"
       y1="1046.0336"
       x2="5.7570815"
       y2="1034.444"
       gradientUnits="userSpaceOnUse" />
  </defs>
  <sodipodi:namedview
     id="base"
     pagecolor="#ffffff"
     bordercolor="#666666"
     borderopacity="1.0"
     inkscape:pageopacity="0.0"
     inkscape:pageshadow="2"
     inkscape:zoom="15.962652"
     inkscape:cx="20.412575"
     inkscape:cy="16.302187"
     inkscape:document-units="px"
     inkscape:current-layer="layer1"
     showgrid="true"
     inkscape:snap-to-guides="false"
     inkscape:snap-grids="false"
     inkscape:window-width="1920"
     inkscape:window-height="1140"
     inkscape:window-x="-4"
     inkscape:window-y="-4"
     inkscape:window-maximized="1">
    <inkscape:grid
       type="xygrid"
       id="grid2985"
       empspacing="5"
       visible="true"
       enabled="true"
       snapvisiblegridlinesonly="true" />
  </sodipodi:namedview>
  <metadata
     id="metadata7">
    <rdf:RDF>
      <cc:Work
         rdf:about="">
        <dc:format>image/svg+xml</dc:format>
        <dc:type
           rdf:resource="http://purl.org/dc/dcmitype/StillImage" />
        <dc:title />
      </cc:Work>
    </rdf:RDF>
  </metadata>
  <g
     inkscape:label="Layer 1"
     inkscape:groupmode="layer"
     id="layer1"
     transform="translate(0,-1020.3622)">
    <path
       style="fill:url(#linearGradient4312);stroke:none;fill-opacity:1"
       d="m 12.422138,1036.0953 c -2.019763,2.0963 -2.750796,2.5864 -4.456339,5.0303 -0.84612,1.2551 1.697283,3.8567 2.971459,2.6557 1.053821,-0.9933 4.710317,-4.4627 4.710317,-4.4627 l 2.513461,2.6447 c 0,0 -3.283835,3.9748 -5.572968,4.9355 -5.238789,2.2619 -9.646468,-2.4582 -7.703783,-7.3321 0.640773,-1.4569 3.607507,-4.5288 4.983754,-5.7563 z"
       id="path3772"
       inkscape:connector-curvature="0"
       sodipodi:nodetypes="ccscccccc" />
    <path
       sodipodi:nodetypes="csscccccc"
       inkscape:connector-curvature="0"
       id="path3774"
       d="m 19.499261,1035.8705 c 2.149565,-2.0052 3.934824,-4.1699 4.89489,-5.594 0.84614,-1.2552 -1.697289,-3.8569 -2.971463,-2.6559 -1.05379,0.9934 -5.336789,5.0892 -5.336789,5.0892 -2.43e-4,0.084 -2.513485,-2.6446 -2.513485,-2.6446 0,0 3.910312,-4.6013 6.199451,-5.5622 5.238818,-2.2619 9.646516,2.4583 7.703808,7.3323 -0.640775,1.4566 -4.421937,4.9674 -5.798179,6.1947 z"
       style="fill:url(#linearGradient4310);stroke:none;fill-opacity:1" />
  </g>
</svg>
