<?xml version="1.0" encoding="UTF-8" standalone="no"?>
<svg
   xmlns:dc="http://purl.org/dc/elements/1.1/"
   xmlns:cc="http://creativecommons.org/ns#"
   xmlns:rdf="http://www.w3.org/1999/02/22-rdf-syntax-ns#"
   xmlns:svg="http://www.w3.org/2000/svg"
   xmlns="http://www.w3.org/2000/svg"
   xmlns:sodipodi="http://sodipodi.sourceforge.net/DTD/sodipodi-0.dtd"
   xmlns:inkscape="http://www.inkscape.org/namespaces/inkscape"
   id="Layer_1"
   data-name="Layer 1"
   viewBox="0 0 92 92"
   version="1.1"
   inkscape:version="0.48.4 r9939"
   width="100%"
   height="100%"
   sodipodi:docname="logo.svg"
   inkscape:export-filename="/var/tmp/cgr/git/ecflow/Viewer/images/logo_small.png"
   inkscape:export-xdpi="19.565218"
   inkscape:export-ydpi="19.565218">
  <title
     id="title2992">ecflow logo</title>
  <metadata
     id="metadata27">
    <rdf:RDF>
      <cc:Work
         rdf:about="">
        <dc:format>image/svg+xml</dc:format>
        <dc:type
           rdf:resource="http://purl.org/dc/dcmitype/StillImage" />
        <dc:title>ecflow logo</dc:title>
        <dc:publisher>
          <cc:Agent>
            <dc:title>ECMWF</dc:title>
          </cc:Agent>
        </dc:publisher>
        <dc:language>en-GB</dc:language>
        <dc:subject>
          <rdf:Bag>
            <rdf:li>ecflow icon</rdf:li>
          </rdf:Bag>
        </dc:subject>
        <dc:description>ecflow icon</dc:description>
      </cc:Work>
    </rdf:RDF>
  </metadata>
  <sodipodi:namedview
     pagecolor="#ffffff"
     bordercolor="#666666"
     borderopacity="1"
     objecttolerance="10"
     gridtolerance="10"
     guidetolerance="10"
     inkscape:pageopacity="0"
     inkscape:pageshadow="2"
     inkscape:window-width="1505"
     inkscape:window-height="1047"
     id="namedview25"
     showgrid="false"
     inkscape:zoom="5.2234043"
     inkscape:cx="15.368636"
     inkscape:cy="46"
     inkscape:window-x="105"
     inkscape:window-y="11"
     inkscape:window-maximized="0"
     inkscape:current-layer="Layer_1" />
  <defs
     id="defs3">
    <style
       id="style5">.cls-1{fill:url(#linear-gradient);}.cls-2{fill:url(#linear-gradient-2);}.cls-3{fill:#fff;opacity:0.66;}</style>
    <linearGradient
       id="linear-gradient-2"
       x1="21"
       y1="46"
       x2="83"
       y2="46"
       gradientUnits="userSpaceOnUse">
      <stop
         offset="0"
         stop-color="#007ac1"
         id="stop13"
         style="stop-color:#007dc1;stop-opacity:1;" />
      <stop
         offset="1"
         stop-color="#00294e"
         id="stop15" />
    </linearGradient>
  </defs>
  <rect
     class="cls-1"
     width="89.894096"
     height="89.128311"
     rx="13.679536"
     ry="13.563003"
     id="rect19"
     style="fill:#ffffff;fill-opacity:1;stroke:#ffffff;stroke-width:2;stroke-miterlimit:4;stroke-opacity:1;stroke-dasharray:none"
     x="1.1486762"
     y="1.7230142" />
  <polygon
     class="cls-2"
     points="69,12 21,12 21,86 37,86 37,63 37,60 53,60 53,66 67,52 53,38 53,44 53,44 37,44 37,28 69,28 69,34 83,20 69,6 "
     id="polygon21"
     style="fill:url(#linear-gradient-2)"
     transform="matrix(0.92589186,0,0,0.94974542,1.3648249,2.2159877)" />
  <polygon
     class="cls-3"
     points="56,54 56,56 60,52 56,48 56,50 31,50 31,22 72,22 72,24 75.93,20 75.93,20 72,16 72,18 27,18 27,80 31,80 31,54 "
     id="polygon23"
     transform="matrix(0.92589186,0,0,0.94974542,1.3648249,2.2159877)"
     style="opacity:0.66000001;fill:#ffffff" />
</svg>
