/* XPM */
static char * Why__xpm[] = {
"16 16 6 1",
" 	c #E7E7E7E7E7E7",
".	c #BDBDB5B5B5B5",
"X	c #4A4A42423939",
"o	c #7B7B7B7B7B7B",
"O	c #CECECECECECE",
"+	c #8C8C8C8C8C8C",
"                ",
"                ",
"                ",
"      .XXXo     ",
"     .XO  XO    ",
"     o.   o+    ",
"     .   .X     ",
"        .XO     ",
"       .XO      ",
"       XO       ",
"      .o        ",
"                ",
"      .O        ",
"      o.        ",
"                ",
"                "};
